#!OML:ASF F:\VICON\USERDATA\INSTALL\rory3\rory3.ASF
:FULLY-SPECIFIED
:DEGREES
10
root 0.5395880000000002 17.8143 -23.456200000000024 -1.4370200000000026 3.6667199999999984 1.898400000000004
lfemur 10.076299999999975 -0.3708949999999973 -26.62620000000001
ltibia 16.19410000000004
lfoot -15.680099999999989 -0.7295509999999963
ltoes -21.361100000000008
rfemur -26.986900000000013 4.973159999999997 17.79900000000001
rtibia 14.774299999999954
rfoot -10.232199999999995 -16.21479999999999
rtoes -9.16424
lowerback -1.0 -1.4505800000000013 -4.88486
upperback 0.16837299999999938 -2.4601200000000016 1.5898800000000002
thorax -5.81681 -1.04983 4.825090000000007
lowerneck -16.3947 -2.76966 -2.29201
upperneck 21.5072 -3.3477000000000006 0.378605999999998
head 9.5523 -1.70393 0.07858300000000012
lclavicle -5.24295e-15 -7.951389999999992e-16
lhumerus -21.210900000000002 -0.3938310000000045 82.1172
lradius 28.003099999999996
lwrist 8.87535
lhand -32.8326 15.785200000000001
lfingers 7.12502
lthumb -6.052639999999999 45.6788
rclavicle -5.24295e-15 -7.951389999999992e-16
rhumerus -36.91510000000001 -26.44239999999999 -72.53389999999999
rradius 21.78150000000002
rwrist 9.14112
rhand -18.1118 -1.0
rfingers 7.12502
rthumb 8.16248 -8.010079999999999
11
root 0.4932970000000001 17.7488 -22.75199999999996 -1.2335100000000017 3.8506000000000054 1.4388100000000055
lfemur 11.086899999999982 -1.3919699999999984 -25.906500000000005
ltibia 18.512200000000007
lfoot -18.0364 0.4940970000000031
ltoes -31.780500000000007
rfemur -26.790999999999997 2.9736600000000015 19.644099999999984
rtibia 15.534599999999969
rfoot -9.265449999999998 -11.762399999999996
rtoes -8.37683000000002
lowerback -1.0 -1.710510000000002 -5.007200000000011
upperback -0.4386399999999992 -2.804870000000003 2.09082
thorax -6.430350000000001 -1.1722800000000018 5.505480000000004
lowerneck -14.787500000000001 -2.469639999999999 -2.6961299999999992
upperneck 21.1096 -2.8646199999999977 0.3569180000000023
head 9.115779999999999 -1.5208699999999988 0.223452
lclavicle -2.4848099999999955e-15 -1.6697900000000044e-14
lhumerus -21.990000000000002 0.1175710000000012 82.5305
lradius 28.478500000000004
lwrist 9.109400000000003
lhand -31.436099999999996 16.9847
lfingers 7.12502
lthumb -4.704270000000002 46.9125
rclavicle -2.4848099999999955e-15 -1.6697900000000044e-14
rhumerus -38.529900000000005 -26.9726 -70.73859999999999
rradius 20.89310000000001
rwrist 10.040599999999989
rhand -18.2655 -1.0
rfingers 7.12502
rthumb 8.01409 -7.98272
12
root 0.43358200000000013 17.7522 -21.98669999999997 -1.6774699999999998 3.9904099999999953 0.996148999999992
lfemur 12.782100000000028 -2.51579 -25.146400000000007
ltibia 21.06910000000002
lfoot -15.401999999999997 -3.8946799999999993
ltoes -10.344799999999996
rfemur -26.821900000000007 1.8001899999999995 21.486399999999996
rtibia 21.111199999999986
rfoot -5.989619999999999 -10.216400000000004
rtoes -7.180399999999991
lowerback -1.0 -1.6612699999999987 -4.874929999999994
upperback -0.3118880000000004 -2.708579999999996 2.249509999999999
thorax -6.29462 -1.1349099999999999 5.579400000000003
lowerneck -14.764100000000001 -2.6137899999999994 -2.464410000000001
upperneck 21.2239 -3.0513199999999996 0.04509070000000115
head 9.144680000000001 -1.6240899999999998 0.055198099999999806
lclavicle -4.249019999999999e-15 -1.073439999999999e-14
lhumerus -22.00930000000001 -0.07149709999999798 82.9992
lradius 27.859299999999998
lwrist 6.804789999999999
lhand -32.801100000000005 13.336100000000009
lfingers 7.12502
lthumb -6.022179999999997 43.230500000000006
rclavicle -4.249019999999999e-15 -1.073439999999999e-14
rhumerus -39.657100000000014 -28.56809999999998 -69.41259999999998
rradius 20.36529999999999
rwrist 10.879900000000006
rhand -18.3445 -1.0
rfingers 7.12502
rthumb 7.93782 -7.67855
13
root 0.3825039999999997 17.8376 -21.189200000000024 -2.1884100000000006 4.067560000000006 0.09089130000000001
lfemur 12.792299999999972 -4.018089999999998 -24.14549999999999
ltibia 26.181799999999996
lfoot -11.588399999999993 -5.972280000000001
ltoes -14.952800000000009
rfemur -26.22730000000002 2.15094 22.645599999999998
rtibia 24.739599999999978
rfoot -3.651719999999993 -9.87147
rtoes -2.0164699999999947
lowerback -1.0 -1.6287999999999967 -3.8493599999999972
upperback -0.1942589999999999 -2.523960000000004 2.304990000000001
thorax -6.22292 -1.0809900000000017 5.021049999999999
lowerneck -15.3802 -2.5776700000000012 -2.2228500000000007
upperneck 21.8731 -3.0838100000000033 0.18938999999999995
head 9.48342 -1.6021700000000005 0.047305700000000395
lclavicle 1.533130000000002e-14 3.5781199999999975e-15
lhumerus -22.74310000000001 0.44357500000000627 83.3491
lradius 28.051700000000004
lwrist 5.99301
lhand -32.8119 12.653300000000014
lfingers 7.12502
lthumb -6.032619999999994 42.54739999999999
rclavicle 1.533130000000002e-14 3.5781199999999975e-15
rhumerus -40.32949999999999 -31.225400000000008 -67.81359999999998
rradius 18.986499999999978
rwrist 12.851299999999984
rhand -18.9841 -1.0
rfingers 7.12502
rthumb 7.320480000000001 -8.630060000000004
14
root 0.35286499999999954 17.8989 -20.368799999999975 -2.55384 3.1993199999999913 -0.9158350000000022
lfemur 10.416300000000025 -2.96712 -22.418700000000005
ltibia 34.3493
lfoot -4.452669999999996 -10.166099999999988
ltoes -20.075099999999996
rfemur -24.84129999999999 1.246309999999999 24.6381
rtibia 27.665000000000013
rfoot -4.636169999999996 -6.847999999999998
rtoes 0.3022319999999974
lowerback -1.0 -1.4952299999999985 -2.6837000000000044
upperback -0.12906399999999996 -2.1719400000000038 2.4596099999999996
thorax -5.861389999999999 -0.9531739999999991 4.436449999999996
lowerneck -15.395699999999998 -2.600330000000001 -2.1108899999999995
upperneck 22.4723 -3.118869999999997 0.06059729999999863
head 9.69345 -1.624610000000001 -0.025231199999999843
lclavicle -4.44159e-14 2.1468699999999987e-14
lhumerus -24.697700000000015 1.562179999999998 83.702
lradius 28.537700000000008
lwrist 6.149320000000001
lhand -33.354200000000006 16.374600000000004
lfingers 7.12502
lthumb -6.556130000000003 46.2532
rclavicle -4.44159e-14 2.1468699999999987e-14
rhumerus -41.20069999999998 -33.7228 -65.89139999999999
rradius 17.871299999999977
rwrist 15.949800000000026
rhand -17.5095 -1.0
rfingers 7.12502
rthumb 8.74368 -7.883570000000001
15
root 0.29777399999999976 18.0034 -19.575600000000026 -3.2829299999999995 2.6558899999999954 -1.6714499999999992
lfemur 6.818229999999967 -1.364839999999998 -20.3338
ltibia 42.94529999999999
lfoot 8.480210000000014 -15.279099999999982
ltoes -16.3881
rfemur -21.971999999999984 1.2614200000000013 26.0944
rtibia 28.828300000000013
rfoot -5.702849999999998 -7.135790000000003
rtoes 3.442499999999998
lowerback -1.0 -1.04982 -1.899489999999999
upperback 0.6723470000000014 -1.4887999999999972 2.4400699999999995
thorax -5.12459 -0.6646479999999989 3.849399999999995
lowerneck -17.8597 -2.963069999999999 -1.6732299999999996
upperneck 23.0096 -3.6609399999999983 -0.07770609999999967
head 10.344900000000003 -1.8413099999999996 -0.262519
lclavicle 4.895070000000006e-15 3.180549999999998e-15
lhumerus -24.994899999999994 1.464310000000001 84.22970000000001
lradius 29.0487
lwrist 6.741009999999999
lhand -32.3274 22.004899999999992
lfingers 7.12502
lthumb -5.564839999999997 51.91180000000001
rclavicle 4.895070000000006e-15 3.180549999999998e-15
rhumerus -39.727899999999984 -33.6469 -67.66849999999998
rradius 18.560499999999983
rwrist 14.643399999999978
rhand -17.489 -1.0
rfingers 7.12502
rthumb 8.76344 -8.267179999999998
16
root 0.2512800000000005 18.0806 -18.82529999999996 -3.7217200000000004 2.2624800000000045 -4.4412
lfemur 1.501020000000021 -0.9992030000000018 -16.205299999999998
ltibia 52.08520000000004
lfoot 21.751899999999967 -19.157599999999967
ltoes -5.424540000000007
rfemur -18.015699999999995 1.4378900000000017 29.711300000000005
rtibia 27.352899999999984
rfoot -6.316720000000001 -7.33004
rtoes 4.99784
lowerback -1.0 -1.013249999999997 0.6754330000000002
upperback 0.2500209999999997 -1.0682300000000018 3.2656800000000006
thorax -5.75659 -0.4987420000000009 3.2151000000000014
lowerneck -16.3549 -3.04437 -1.89354
upperneck 22.5731 -3.7002599999999983 -0.2370870000000027
head 9.90542 -1.9051600000000004 -0.2571270000000001
lclavicle -1.2187999999999987e-14 3.220309999999995e-14
lhumerus -27.400100000000002 1.7901900000000026 84.8002
lradius 29.141200000000005
lwrist 6.8321499999999995
lhand -31.577899999999996 22.044400000000007
lfingers 7.12502
lthumb -4.841190000000003 51.96909999999999
rclavicle -1.2187999999999987e-14 3.220309999999995e-14
rhumerus -39.535000000000004 -29.760000000000012 -69.6262
rradius 19.85600000000001
rwrist 11.31680000000001
rhand -16.2302 -1.0
rfingers 7.12502
rthumb 9.97809 -5.561670000000001
17
root 0.2253089999999991 18.1191 -18.141600000000032 -3.7673900000000016 1.5238800000000028 -5.772030000000003
lfemur -4.653750000000004 -0.25959799999999733 -13.992199999999992
ltibia 60.82289999999997
lfoot 28.03560000000005 -21.337399999999995
ltoes 2.219560000000003
rfemur -15.2487 1.7863299999999995 31.606900000000007
rtibia 26.779999999999987
rfoot -7.15731 -7.188930000000003
rtoes 7.104610000000007
lowerback -1.0 -0.7347690000000013 1.9337699999999989
upperback 0.035672500000000135 -0.4970810000000009 3.598880000000003
thorax -6.2086 -0.24597999999999917 2.7788599999999986
lowerneck -15.5378 -3.0850899999999997 -2.00149
upperneck 22.002 -3.739279999999999 -0.2489929999999978
head 9.55245 -1.9371300000000002 -0.22793500000000083
lclavicle -2.112089999999996e-15 2.266149999999999e-14
lhumerus -28.775499999999997 3.4121799999999993 84.5239
lradius 28.916800000000002
lwrist 6.427329999999999
lhand -27.6281 27.399399999999986
lfingers 7.12502
lthumb -1.0267000000000024 57.3767
rclavicle -2.112089999999996e-15 2.266149999999999e-14
rhumerus -37.91599999999999 -27.26810000000001 -71.46070000000002
rradius 20.406799999999986
rwrist 9.850450000000011
rhand -14.4539 -1.0
rfingers 7.12502
rthumb 11.691399999999991 -1.114730000000013
